<?xml version="1.0" encoding="UTF-8"?> <svg xmlns="http://www.w3.org/2000/svg" xmlns:xlink="http://www.w3.org/1999/xlink" width="204px" height="192px" viewBox="0 0 204 192" version="1.1"><title>Artboard</title><g id="Artboard" stroke="none" stroke-width="1" fill="none" fill-rule="evenodd"><rect fill="#FFFFFF" x="0" y="0" width="204" height="192"></rect><g id="logomobile" transform="translate(38.000000, 80.000000)" fill-rule="nonzero"><path d="M128.931,23.0844 L126.003,17.5157 L126.639,16.8622 C126.625,16.8765 126.597,16.8907 126.583,16.9191 C127.587,15.9105 128.083,14.4615 127.955,12.7568 C127.715,9.17693 125.041,6.94662 120.98,6.94662 L114.246,6.94662 C114.076,6.94662 113.935,7.00344 113.836,7.11709 C112.817,8.16832 111.798,9.23375 110.78,10.285 C110.681,10.3986 110.624,10.5407 110.638,10.7111 L110.949,15.1433 L107.738,7.41541 C107.611,7.11709 107.37,6.93241 107.059,6.93241 L102.22,6.93241 C102.036,6.93241 101.881,7.00344 101.768,7.11709 L101.753,7.1313 C100.735,8.18252 99.7303,9.23375 98.7116,10.2992 C98.6409,10.3702 98.5843,10.4697 98.556,10.5975 L96.2074,18.7374 C96.1509,18.7232 96.0943,18.709 96.0235,18.709 L90.4917,18.709 L95.9952,11.8192 C96.0801,11.6913 96.1084,11.5493 96.0943,11.3788 L95.8396,7.52906 C95.8113,7.18812 95.5425,6.93241 95.2029,6.93241 L83.6017,6.93241 C83.5451,6.93241 83.4885,6.94662 83.4319,6.96083 C83.4178,6.96083 83.4037,6.96083 83.3895,6.96083 C83.3471,6.96083 83.3046,6.97503 83.248,6.98924 L77.4899,9.48945 L74.3207,2.98321 C74.25,2.85536 74.1227,2.77012 73.9812,2.77012 L72.5947,2.77012 C72.4815,2.77012 72.3966,2.82695 72.3259,2.89798 C72.34,2.88377 72.34,2.86957 72.3542,2.86957 L70.0622,5.25613 L64.87,0.113646 C64.7992,0.042617 64.7002,0 64.6012,0 C64.5304,0 64.4738,0.014206 64.4173,0.056823 C64.389,0.071029 64.3607,0.09944 64.3465,0.127852 C64.3465,0.113646 64.3607,0.113646 64.3607,0.09944 L61.3047,3.28153 C61.2057,3.38097 61.1915,3.53724 61.2481,3.67929 L63.6674,8.72234 C62.6488,7.50065 60.9227,6.81877 58.6449,6.81877 L51.7408,6.81877 C51.571,6.81877 51.4295,6.87559 51.3305,6.98924 C50.8495,7.48644 50.3685,7.99785 49.8874,8.49505 L49.8167,7.41541 C49.7884,7.07447 49.5196,6.81877 49.18,6.81877 L44.9357,6.81877 C44.6952,6.81877 44.4971,6.904 44.3698,7.04606 L44.3839,7.03185 C43.3653,8.09729 42.3466,9.14851 41.328,10.2139 C41.2572,10.285 41.2148,10.356 41.1865,10.4554 L40.6347,11.9755 L38.2438,7.28756 C38.1164,6.98924 37.8335,6.81877 37.4798,6.81877 L33.1788,6.81877 C33.0091,6.81877 32.8676,6.87559 32.7685,6.98924 L30.4907,9.3616 C29.2033,7.55747 27.0387,6.53465 24.4355,6.53465 C22.2001,6.53465 20.4033,7.28756 19.2715,8.6087 C19.3422,8.52346 17.5455,10.3844 16.5834,11.393 C16.3288,8.48084 14.1358,6.81877 10.514,6.81877 L3.60985,6.81877 C3.44008,6.81877 3.2986,6.87559 3.19956,6.98924 C2.18092,8.04046 1.16227,9.1059 0.14363,10.1571 C0.0445949003,10.2566 -0.0119964997,10.4128 0.0021513603,10.5833 L1.09153,26.3091 C1.11983,26.65 1.38864,26.9057 1.72819,26.9057 L8.63233,26.9057 C10.6838,26.9057 12.2542,26.3517 13.2162,25.3573 L15.6638,22.8145 C15.678,22.8571 15.6921,22.8855 15.7063,22.9281 C16.7532,25.5988 19.3281,27.204 22.5821,27.204 C24.676,27.204 26.402,26.5364 27.5338,25.3573 L30.3917,22.3883 L30.6605,26.3233 C30.6888,26.6642 30.9576,26.9199 31.2972,26.9199 L35.3152,26.9199 C35.4849,26.9199 35.6264,26.8631 35.7254,26.7495 C36.4045,26.0392 37.0978,25.3289 37.7769,24.6186 C37.8901,24.6754 38.0032,24.6896 38.1164,24.6896 L40.182,24.6896 C40.4084,24.6896 40.5923,24.6044 40.7479,24.4623 C41.2997,23.8941 41.8515,23.3117 42.4032,22.7434 L42.6437,26.3233 C42.672,26.6642 42.9408,26.9199 43.2804,26.9199 L47.2984,26.9199 C47.4681,26.9199 47.6096,26.8631 47.7087,26.7495 C48.1897,26.2523 48.6707,25.7409 49.1659,25.2436 L49.2366,26.3233 C49.2649,26.6642 49.5337,26.9199 49.8733,26.9199 L56.7774,26.9199 C58.8289,26.9199 60.3993,26.3659 61.3613,25.3715 L64.4173,22.1894 C64.3748,22.232 64.3324,22.2604 64.3041,22.2888 C64.6578,21.9479 64.9407,21.5501 65.1388,21.1098 L65.8745,21.4081 L64.4455,27.7297 C64.4173,27.8575 64.4738,28.0138 64.587,28.099 C64.6578,28.1558 64.7427,28.1842 64.8134,28.1842 C64.87,28.1842 64.9266,28.17 64.969,28.1416 L72.9908,24.022 L83.6442,32.9006 C83.7149,32.9574 83.7998,32.9858 83.8847,32.9858 C83.9554,32.9858 84.0262,32.9574 84.0827,32.9148 C84.0969,32.9006 84.111,32.8864 84.1252,32.8864 C85.1438,31.8209 86.1625,30.7697 87.1811,29.7043 C87.167,29.7185 87.1528,29.7327 87.1387,29.7327 C87.266,29.6332 87.3085,29.4628 87.2236,29.3065 L86.0917,27.0052 L93.3213,27.0052 C93.4911,27.0052 93.6325,26.9483 93.7174,26.8489 C93.8165,26.7495 93.9155,26.65 94.0145,26.5506 C94.0287,26.6358 94.057,26.7353 94.1277,26.8063 C94.2409,26.9341 94.3965,27.0194 94.5804,27.0194 L99.4049,27.0194 C99.5888,27.0194 99.7303,26.9625 99.8434,26.8347 L101.937,24.6612 L104.611,24.6612 L105.262,26.5364 C105.389,26.8347 105.644,27.0194 105.941,27.0194 L110.766,27.0194 C110.921,27.0194 111.049,26.9625 111.148,26.8773 C111.331,26.6784 111.53,26.4795 111.713,26.2807 L111.728,26.4227 C111.756,26.7637 112.025,27.0194 112.364,27.0194 L116.849,27.0194 C117.019,27.0194 117.16,26.9625 117.245,26.8631 C117.839,26.2523 118.434,25.6272 119.014,25.0164 L119.749,26.5648 C119.848,26.7779 120.032,27.0194 120.457,27.0194 L125.423,27.0194 C125.578,27.0194 125.706,26.9625 125.791,26.8773 C126.809,25.8119 127.828,24.7607 128.847,23.6952 C128.847,23.6952 128.832,23.6952 128.832,23.7094 C128.861,23.681 128.889,23.6526 128.903,23.6242 C129.016,23.4679 129.016,23.2833 128.931,23.0844 Z M62.2243,15.0581 L62.2385,15.2854 L62.2243,15.0581 Z M63.2713,14.9871 L63.2571,14.9729 C64.3041,14.1774 64.8275,12.9557 64.7144,11.4783 C64.6861,11.1657 64.6436,10.8674 64.5729,10.5833 L66.016,13.5807 L63.2713,14.9871 Z M85.3136,16.294 L83.1207,15.257 L86.1483,15.257 L85.3136,16.294 Z" id="Shape" fill="#000000"></path><path d="M125.041,17.1604 L128.182,23.1411 L123.485,23.1411 L120.938,17.8565 L119.877,17.8565 C119.58,17.8565 119.396,18.0554 119.41,18.3537 L119.736,23.1411 L115.491,23.1411 L114.416,7.64258 L121.037,7.64258 C124.701,7.64258 127.036,9.5462 127.248,12.7424 C127.375,14.646 126.71,16.1234 125.296,16.99 L125.041,17.1604 Z M121.136,14.5608 C122.367,14.5608 123.06,13.9073 122.99,12.8277 C122.919,11.7338 122.141,11.0946 120.896,11.0946 L119.396,11.0946 C119.099,11.0946 118.915,11.3077 118.929,11.5918 L119.099,14.0636 C119.113,14.3619 119.339,14.5608 119.637,14.5608 L121.136,14.5608 Z" id="Shape" fill="#FFFFFF"></path><path d="M107.073,7.64258 L113.524,23.1411 L108.983,23.1411 L108.162,20.7829 L102.885,20.7829 L102.39,23.1411 L97.8486,23.1411 L102.291,7.65678 L107.073,7.64258 Z M103.579,17.4161 L107.002,17.4161 L105.276,12.3873 L104.668,12.3873 L103.579,17.4161 Z" id="Shape" fill="#FFFFFF"></path><polygon id="Path" fill="#FFFFFF" points="95.1463 7.64258 95.401 11.3929 89.4448 18.8509 89.4731 19.4192 95.9528 19.4192 96.2074 23.1411 84.5779 23.1411 84.3233 19.3907 90.2653 11.9185 90.2229 11.3645 84.0262 11.3645 83.7715 7.64258"></polygon><path d="M65.8051,2.00293 L71.4501,7.5858 C71.5208,7.65683 71.6198,7.69944 71.7189,7.69944 C71.7472,7.69944 71.7755,7.69944 71.8037,7.68524 C71.9311,7.65683 72.016,7.55738 72.0443,7.44374 L72.9214,3.48033 L73.7986,3.48033 L77.0243,10.086 C77.095,10.2281 77.2224,10.2991 77.3638,10.2991 C77.4063,10.2991 77.4487,10.2849 77.5053,10.2707 L82.4571,8.12562 L78.9201,13.5664 C78.8635,13.6517 78.8494,13.7653 78.8777,13.8647 C78.906,13.9642 78.9909,14.0494 79.0757,14.092 L84.4802,16.6775 L81.0989,17.5156 C80.9998,17.544 80.915,17.6009 80.8725,17.7003 C80.8301,17.7997 80.8301,17.8992 80.8867,17.9986 L85.8808,28.17 L76.2745,20.1579 C76.2037,20.1011 76.1188,20.0727 76.034,20.0727 C75.9774,20.0727 75.9349,20.0869 75.8783,20.1153 L68.3517,23.9793 L69.6674,18.1265 C69.7099,17.956 69.6108,17.7713 69.4411,17.7003 L63.9941,15.4416 L70.3607,12.2169 C70.5304,12.1316 70.587,11.9328 70.5021,11.7623 L65.8051,2.00293 Z" id="Path" fill="#FFFFFF"></path><path d="M62.4654,15.3709 C63.767,15.8539 64.6866,17.2034 64.7998,18.7803 C64.9837,21.4794 63.1587,23.0278 59.7773,23.0278 L52.9864,23.0278 L51.9111,7.5293 L58.7021,7.5293 C61.942,7.5293 63.8378,8.93567 64.0075,11.4927 C64.1066,12.9133 63.5265,14.0497 62.3805,14.6748 L62.1966,14.7742 L62.2249,15.2856 L62.4654,15.3709 Z M58.5748,20.1582 C59.9471,20.1582 60.5696,19.519 60.4847,18.212 C60.3998,16.9619 59.6359,16.2801 58.3201,16.2801 L57.2732,16.2801 C56.9761,16.2801 56.7921,16.4931 56.8063,16.7773 L57.0044,19.661 C57.0185,19.9593 57.2449,20.1582 57.542,20.1582 L58.5748,20.1582 Z M56.396,10.8677 L56.5658,13.3963 C56.5799,13.6946 56.8063,13.8935 57.1034,13.8935 L57.8815,13.8935 C58.7728,13.8935 59.933,13.7088 59.8198,12.132 C59.7066,10.5693 58.5889,10.3705 57.641,10.3705 L56.8629,10.3705 C56.5658,10.3705 56.3819,10.5693 56.396,10.8677 Z" id="Shape" fill="#FFFFFF"></path><path d="M49.1093,7.5293 L50.1846,23.0278 L46.4071,23.0278 L45.8836,15.3567 L45.1762,15.3567 L43.3229,20.7123 C43.3087,20.7549 43.2804,20.8117 43.1955,20.8117 L41.1158,20.8117 C41.1016,20.8117 41.0309,20.7833 40.9743,20.698 L38.3853,15.3425 L37.6779,15.3425 L38.2013,23.0136 L34.4239,23.0136 L33.3486,7.5293 L37.5222,7.5293 C37.5647,7.5293 37.593,7.5435 37.6071,7.55771 L41.5544,15.3283 L42.1203,15.3283 L44.9074,7.5435 C44.9074,7.5435 44.9357,7.5293 44.9781,7.5293 L49.1093,7.5293 Z" id="Path" fill="#FFFFFF"></path><path d="M30.647,11.0239 C31.1422,12.3308 31.2836,13.2684 31.4251,15.2856 C31.5666,17.2886 31.5524,18.2404 31.2412,19.5331 C30.6328,21.9339 28.5672,23.3118 25.5962,23.3118 C22.6252,23.3118 20.3756,21.9339 19.4277,19.5331 C18.9326,18.2262 18.7911,17.2886 18.6496,15.2856 C18.5081,13.2826 18.5223,12.3308 18.8335,11.0381 C19.4419,8.62308 21.5075,7.24512 24.4785,7.24512 C27.4496,7.24512 29.7132,8.62308 30.647,11.0239 Z M27.0959,18.3114 C27.2373,17.7148 27.2091,16.9619 27.0959,15.2714 C26.9827,13.5809 26.9119,12.828 26.6856,12.2313 C26.3743,11.4358 25.6528,10.9528 24.7473,10.9528 C23.8419,10.9528 23.1769,11.4358 22.9788,12.2313 C22.8374,12.828 22.8657,13.5809 22.9788,15.2714 C23.092,16.9619 23.1628,17.7148 23.4033,18.3114 C23.7145,19.1069 24.4361,19.5899 25.3415,19.5899 C26.247,19.5899 26.8978,19.1069 27.0959,18.3114 Z" id="Shape" fill="#FFFFFF"></path><path d="M14.3346,15.3709 C15.6503,15.8539 16.5558,17.2034 16.669,18.7803 C16.8529,21.4794 15.0278,23.0278 11.6465,23.0278 L4.85551,23.0278 L3.78027,7.5293 L10.5712,7.5293 C13.8111,7.5293 15.7069,8.93567 15.8767,11.4927 C15.9757,12.9133 15.3956,14.0497 14.2497,14.6748 L14.0658,14.7742 L14.094,15.2856 L14.3346,15.3709 Z M10.4439,20.1582 C11.8162,20.1582 12.4387,19.519 12.3539,18.212 C12.269,16.9619 11.4908,16.2801 10.1751,16.2801 L9.12816,16.2801 C8.83105,16.2801 8.64713,16.4931 8.66128,16.7773 L8.85935,19.661 C8.87349,19.9593 9.09986,20.1582 9.39696,20.1582 L10.4439,20.1582 Z M8.26514,10.8677 L8.43491,13.3963 C8.44906,13.6946 8.67542,13.8935 8.97253,13.8935 L9.75066,13.8935 C10.642,13.8935 11.8021,13.7088 11.6889,12.132 C11.5899,10.5693 10.4722,10.3705 9.51015,10.3705 L8.73202,10.3705 C8.43491,10.3705 8.23684,10.5693 8.26514,10.8677 Z" id="Shape" fill="#FFFFFF"></path><path d="M75.5094,16.2943 C75.4386,16.2375 75.3537,16.2091 75.2547,16.2091 C75.184,16.2091 75.1274,16.2233 75.0708,16.2517 L72.8213,17.4024 L74.0097,12.0752 L74.7029,12.0752 L77.6174,18.0274 L75.5094,16.2943 Z" id="Path" fill="#000000"></path></g></g></svg> 